HIERARCHY
ROOT Hips
{
	OFFSET 0.017393 -0.023493 -0.005073
	CHANNELS 6 Xposition Yposition Zposition Zrotation Yrotation Xrotation 
	JOINT LHipJoint
	{
		OFFSET 0.013284 0.033964 -0.019092
		CHANNELS 3 Zrotation Yrotation Xrotation
		JOINT LeftUpLeg
		{
			OFFSET -0.009544 0.002870 0.011908
			CHANNELS 3 Zrotation Yrotation Xrotation
			JOINT LeftLeg
			{
				OFFSET 0.054997 0.071289 0.017283
				CHANNELS 3 Zrotation Yrotation Xrotation
				JOINT LeftFoot
				{
					OFFSET -0.037161 -0.003873 -0.030814
					CHANNELS 3 Zrotation Yrotation Xrotation
					JOINT LeftToeBase
					{
						OFFSET -0.082353 -0.025709 -0.041297
						CHANNELS 3 Zrotation Yrotation Xrotation
						End Site
						{
							OFFSET 0.000000 0.000000 0.000000
						}
					}
				}
			}
		}
	}
	JOINT RHipJoint
	{
		OFFSET -0.018821 -0.010557 -0.050628
		CHANNELS 3 Zrotation Yrotation Xrotation
		JOINT RightUpLeg
		{
			OFFSET 0.005323 0.032482 0.045259
			CHANNELS 3 Zrotation Yrotation Xrotation
			JOINT RightLeg
			{
				OFFSET 0.080669 0.126815 0.084691
				CHANNELS 3 Zrotation Yrotation Xrotation
				JOINT RightFoot
				{
					OFFSET 0.111853 0.104746 0.074356
					CHANNELS 3 Zrotation Yrotation Xrotation
					JOINT RightToeBase
					{
						OFFSET 0.121258 0.040109 0.054203
						CHANNELS 3 Zrotation Yrotation Xrotation
						End Site
						{
							OFFSET 0.000000 0.000000 0.000000
						}
					}
				}
			}
		}
	}
	JOINT LowerBack
	{
		OFFSET 0.021334 -0.000009 0.054404
		CHANNELS 3 Zrotation Yrotation Xrotation
		JOINT Spine
		{
			OFFSET 0.097483 0.046714 0.042725
			CHANNELS 3 Zrotation Yrotation Xrotation
			JOINT Spine1
			{
				OFFSET 0.009969 -0.078004 -0.029838
				CHANNELS 3 Zrotation Yrotation Xrotation
				JOINT Neck
				{
					OFFSET 0.000592 -0.018166 -0.011154
					CHANNELS 3 Zrotation Yrotation Xrotation
					JOINT Neck1
					{
						OFFSET -0.033722 -0.055427 -0.073179
						CHANNELS 3 Zrotation Yrotation Xrotation
						JOINT Head
						{
							OFFSET -0.052546 -0.073728 -0.090765
							CHANNELS 3 Zrotation Yrotation Xrotation
							End Site
							{
								OFFSET 0.000000 0.000000 0.000000
							}
						}
					}
				}
				JOINT LeftShoulder
				{
					OFFSET -0.091535 -0.140557 -0.109774
					CHANNELS 3 Zrotation Yrotation Xrotation
					JOINT LeftArm
					{
						OFFSET -0.093974 -0.147574 -0.236102
						CHANNELS 3 Zrotation Yrotation Xrotation
						JOINT LeftForeArm
						{
							OFFSET -0.220087 -0.196016 -0.152618
							CHANNELS 3 Zrotation Yrotation Xrotation
							JOINT LeftHand
							{
								OFFSET -0.185944 -0.212413 -0.238078
								CHANNELS 3 Zrotation Yrotation Xrotation
								JOINT LeftFingerBase
								{
									OFFSET -0.197318 -0.206307 -0.191690
									CHANNELS 3 Zrotation Yrotation Xrotation
									JOINT LeftHandIndex1
									{
										OFFSET -0.158364 -0.125563 -0.078758
										CHANNELS 3 Zrotation Yrotation Xrotation
										End Site
										{
											OFFSET 0.000000 0.000000 0.000000
										}
									}
								}
								JOINT LThumb
								{
									OFFSET -0.069963 -0.068348 -0.074419
									CHANNELS 3 Zrotation Yrotation Xrotation
									End Site
									{
										OFFSET 0.000000 0.000000 0.000000
									}
								}
							}
						}
					}
				}
				JOINT RightShoulder
				{
					OFFSET -0.031190 -0.040553 -0.020821
					CHANNELS 3 Zrotation Yrotation Xrotation
					JOINT RightArm
					{
						OFFSET 0.051622 0.071203 -0.006351
						CHANNELS 3 Zrotation Yrotation Xrotation
						JOINT RightForeArm
						{
							OFFSET -0.003797 -0.014609 -0.011314
							CHANNELS 3 Zrotation Yrotation Xrotation
							JOINT RightHand
							{
								OFFSET 0.058588 0.029905 0.029091
								CHANNELS 3 Zrotation Yrotation Xrotation
								JOINT RightFingerBase
								{
									OFFSET 0.038621 0.002340 -0.005770
									CHANNELS 3 Zrotation Yrotation Xrotation
									JOINT RightHandIndex1
									{
										OFFSET -0.004531 -0.028300 0.022177
										CHANNELS 3 Zrotation Yrotation Xrotation
										End Site
										{
											OFFSET 0.000000 0.000000 0.000000
										}
									}
								}
								JOINT RThumb
								{
									OFFSET 0.041966 0.015249 0.020952
									CHANNELS 3 Zrotation Yrotation Xrotation
									End Site
									{
										OFFSET -0.014028 0.017428 -0.013979
									}
								}
							}
						}
					}
				}
			}
		}
	}
}
MOTION
Frames: 9
Frame Time: 0.008333
-0.038234 -0.105890 0.019729 -0.164549 -0.191320 -0.185180 -0.211557 -0.000596 0.063761 0.003567 0.008311 -0.026597 0.189059 0.152436 0.077644 0.060340 -0.078143 -0.092375 -0.077517 -0.004179 0.012147 0.097975 0.182364 -0.071031 -0.049731 -0.016124 -0.157960 -0.238202 -0.411222 -0.497516 -0.485025 -0.226065 -0.172164 -0.133190 0.002164 -0.212102 -0.227225 -0.116738 -0.102873 0.103418 0.039491 0.005995 0.097796 0.014852 -0.098341 -0.123980 -0.124364 0.035447 -0.016111 -0.081554 -0.154190 -0.401072 -0.412511 -0.232879 -0.174558 -0.056189 0.122080 -0.016963 -0.102383 -0.098803 -0.139706 -0.116288 -0.113823 -0.031275 -0.112024 -0.183732 -0.165213 -0.093560 -0.169758 -0.088511 -0.139916 -0.054734 0.034563 -0.138045 -0.188296 0.023492 -0.015696 -0.030951 -0.049741 -0.069688 0.016349 -0.033952 0.022219 0.107846 0.140266 -0.019413 -0.054751 -0.221958 -0.234139 -0.128439 -0.093283 -0.228920 -0.167666 -0.150129 -0.160739 -0.208411
-0.045081 -0.126252 -0.025580 -0.184212 -0.216054 -0.211405 -0.215999 -0.005421 0.070745 0.013319 -0.005723 -0.059391 0.168876 0.118453 0.043937 0.065034 -0.093536 -0.098655 -0.075625 -0.022590 -0.003485 0.059883 0.128431 -0.121008 -0.120127 -0.068864 -0.157531 -0.253718 -0.379074 -0.505195 -0.528543 -0.244408 -0.226102 -0.148417 0.000493 -0.199117 -0.226119 -0.135568 -0.125211 0.031062 -0.005460 0.022451 0.115020 0.015474 -0.115004 -0.146780 -0.175853 -0.052990 -0.121314 -0.211127 -0.282124 -0.540195 -0.536510 -0.342644 -0.268933 -0.131922 0.040692 -0.064571 -0.150031 -0.149606 -0.208810 -0.178211 -0.135419 -0.060277 -0.120033 -0.171890 -0.164447 -0.101432 -0.170310 -0.097523 -0.174399 -0.082895 0.021015 -0.154416 -0.203738 0.023901 0.005938 -0.003597 -0.037400 -0.087156 -0.028859 -0.084760 -0.032395 0.067074 0.115646 -0.023877 -0.062496 -0.224418 -0.243249 -0.138055 -0.101090 -0.243899 -0.173970 -0.159313 -0.183307 -0.215176
-0.034044 -0.078031 0.049728 -0.144106 -0.138459 -0.108545 -0.122447 0.021900 0.020239 -0.008104 -0.042404 -0.099117 0.072421 0.027135 -0.031262 0.026522 -0.130631 -0.146776 -0.073766 -0.093847 -0.008162 0.081004 0.137144 -0.127281 -0.121185 -0.100551 -0.213773 -0.244103 -0.304613 -0.404170 -0.399422 -0.182316 -0.172417 -0.112430 0.007587 -0.170186 -0.173903 -0.124305 -0.152512 0.093308 -0.025534 0.034948 0.180931 0.074899 -0.086931 -0.192921 -0.240198 -0.133284 -0.257308 -0.344417 -0.421518 -0.660435 -0.612487 -0.511104 -0.416008 -0.217884 -0.039406 -0.150533 -0.232972 -0.216959 -0.253644 -0.184234 -0.122723 -0.022882 -0.069875 -0.093814 -0.111474 -0.123809 -0.175315 -0.055087 -0.103476 -0.063299 0.042335 -0.153024 -0.225726 0.053614 -0.001764 -0.030190 -0.043783 -0.070966 -0.035482 -0.120746 -0.059535 0.010240 0.060827 -0.087423 -0.105815 -0.169222 -0.172028 -0.070707 -0.001350 -0.176824 -0.117907 -0.125680 -0.142663 -0.162573
-0.053158 -0.076965 0.090482 -0.120850 -0.135674 -0.067932 -0.120119 0.012345 0.023560 0.039176 0.013103 -0.035954 0.119073 0.045406 -0.023542 0.011969 -0.095656 -0.094959 -0.023791 -0.039006 0.036498 0.059160 0.135788 -0.157192 -0.199987 -0.171579 -0.287332 -0.267743 -0.321517 -0.391482 -0.378334 -0.194021 -0.173403 -0.176896 -0.062521 -0.202042 -0.177739 -0.140847 -0.172954 0.068318 -0.009659 0.079569 0.248637 0.069404 -0.139801 -0.290864 -0.326411 -0.214829 -0.316037 -0.369683 -0.448010 -0.664331 -0.604458 -0.506947 -0.457325 -0.244471 -0.073593 -0.136484 -0.202900 -0.197424 -0.228828 -0.187444 -0.130816 -0.048483 -0.118092 -0.153791 -0.159922 -0.159356 -0.202658 -0.118894 -0.174817 -0.097918 0.033853 -0.144629 -0.209281 0.072091 0.030724 -0.000162 -0.013056 -0.045979 -0.019608 -0.083297 -0.043063 0.036166 0.059474 -0.122553 -0.138801 -0.244830 -0.219470 -0.132275 -0.076139 -0.204640 -0.163212 -0.164713 -0.194223 -0.210617
-0.018242 -0.066356 0.069449 -0.130672 -0.152506 -0.057294 -0.068594 0.090907 0.041668 0.035395 0.065267 0.019282 0.164896 0.167960 0.120061 0.085485 0.061987 0.065748 0.089831 0.018458 0.060588 0.096596 0.152957 -0.101188 -0.196415 -0.219626 -0.324450 -0.286041 -0.281708 -0.304936 -0.302365 -0.143944 -0.109788 -0.125545 -0.012875 -0.151683 -0.109199 -0.058560 -0.064487 0.062440 -0.045013 0.064383 0.161809 -0.012423 -0.224891 -0.363080 -0.391204 -0.212832 -0.321397 -0.369375 -0.408494 -0.618842 -0.529462 -0.497004 -0.450430 -0.253085 -0.090817 -0.123262 -0.183420 -0.245457 -0.273667 -0.226505 -0.178956 -0.062269 -0.115348 -0.195247 -0.177309 -0.111493 -0.208711 -0.101751 -0.198200 -0.118697 0.012339 -0.158336 -0.208763 0.049805 -0.022199 -0.074415 -0.087613 -0.105957 -0.038942 -0.087230 -0.043365 0.012588 0.036719 -0.074179 -0.061550 -0.178644 -0.164977 -0.100694 -0.064768 -0.209163 -0.204580 -0.168107 -0.225027 -0.264874
0.011529 -0.062413 0.074913 -0.112787 -0.127941 -0.060612 -0.092590 0.085319 -0.001798 0.022683 0.053212 0.005341 0.160502 0.144219 0.127346 0.108809 0.047395 0.061032 0.073829 -0.027440 0.050635 0.069761 0.135597 -0.120366 -0.225313 -0.222212 -0.337794 -0.295979 -0.289852 -0.306552 -0.278733 -0.151235 -0.139929 -0.142674 -0.049152 -0.162947 -0.120055 -0.013932 -0.009412 0.064934 -0.054665 0.036484 0.143349 -0.017505 -0.175781 -0.367459 -0.409818 -0.217168 -0.348390 -0.391330 -0.443460 -0.643267 -0.524369 -0.502326 -0.451802 -0.250467 -0.118201 -0.160375 -0.226984 -0.256715 -0.302866 -0.259616 -0.200726 -0.117779 -0.152131 -0.240300 -0.225123 -0.184337 -0.265334 -0.154941 -0.233804 -0.116197 -0.021706 -0.205196 -0.252894 0.005614 -0.057364 -0.083933 -0.072076 -0.086147 -0.018484 -0.060082 -0.018100 0.020563 0.027868 -0.055968 -0.038925 -0.156455 -0.128029 -0.060542 -0.027494 -0.161957 -0.191490 -0.112312 -0.179315 -0.234937
-0.000931 -0.054299 0.083342 -0.088955 -0.112087 -0.077036 -0.096527 0.069627 -0.056604 -0.041018 -0.013322 -0.115725 0.047843 0.016531 0.012433 0.054644 -0.035889 0.062088 0.066029 -0.033187 0.075906 0.084974 0.134475 -0.059547 -0.175718 -0.152644 -0.269298 -0.289549 -0.217641 -0.275976 -0.228044 -0.111271 -0.095048 -0.114587 -0.056992 -0.154682 -0.134097 -0.021529 0.009837 0.120133 0.025743 0.059767 0.183938 0.059029 -0.095139 -0.196500 -0.271740 -0.131330 -0.285116 -0.297655 -0.327692 -0.577053 -0.461610 -0.472179 -0.454573 -0.258113 -0.145832 -0.148738 -0.216598 -0.217305 -0.244881 -0.235490 -0.172561 -0.109645 -0.101554 -0.125643 -0.123148 -0.104398 -0.143396 -0.092951 -0.152812 -0.058375 -0.032966 -0.184560 -0.179163 0.082106 0.043346 0.004661 -0.025163 -0.031816 0.013308 -0.021308 0.057428 0.063154 0.059110 0.022186 0.037504 -0.086529 -0.101931 -0.008433 0.003683 -0.024442 -0.047971 0.040112 -0.026660 -0.087267
0.007216 -0.049450 0.076916 -0.107245 -0.130368 -0.112326 -0.138390 -0.005811 -0.147612 -0.147769 -0.118015 -0.159697 -0.032168 -0.067142 -0.067613 -0.013360 -0.090687 0.048316 0.040667 -0.074677 0.068999 0.061212 0.099416 -0.088024 -0.188066 -0.139186 -0.230217 -0.293969 -0.240231 -0.286617 -0.271836 -0.112759 -0.114014 -0.107396 -0.072163 -0.136876 -0.036373 -0.033697 0.001085 0.111763 -0.014170 0.049974 0.169976 -0.041639 -0.203112 -0.278050 -0.318576 -0.191970 -0.360071 -0.345044 -0.389665 -0.632966 -0.510777 -0.492505 -0.457738 -0.256567 -0.124481 -0.149545 -0.199447 -0.155977 -0.192538 -0.181077 -0.150080 -0.096196 -0.072460 -0.081086 -0.051765 -0.046509 -0.092356 -0.045494 -0.108520 -0.041322 -0.037679 -0.160314 -0.144122 0.103133 0.038378 -0.077146 -0.097203 -0.091827 -0.027283 -0.011220 0.055496 0.057954 0.027395 0.015355 0.044581 -0.048445 -0.086334 0.030422 0.067991 -0.026799 0.000679 0.117123 0.039106 0.016801
-0.015228 -0.044837 0.075365 -0.097006 -0.107524 -0.075808 -0.096017 0.094512 -0.008304 -0.030212 -0.007058 -0.068650 0.057416 -0.038791 -0.074159 0.032711 -0.052566 0.113566 0.107363 -0.056057 0.090903 0.010874 0.057158 -0.149089 -0.271403 -0.127855 -0.195977 -0.279931 -0.289200 -0.335484 -0.368085 -0.245783 -0.228775 -0.127460 -0.076476 -0.251870 -0.092877 -0.082795 -0.083917 0.064464 -0.071671 0.049506 0.235998 0.011415 -0.138196 -0.301657 -0.347120 -0.157185 -0.256047 -0.256734 -0.354415 -0.578328 -0.482312 -0.455152 -0.444444 -0.296332 -0.102370 -0.068818 -0.095259 -0.041336 -0.132424 -0.209174 -0.177499 -0.069997 -0.070921 -0.107917 -0.087118 -0.070444 -0.095806 -0.061507 -0.114781 -0.040037 -0.007496 -0.158102 -0.166188 0.087989 0.029724 -0.047304 -0.062581 -0.076456 -0.005209 0.012713 0.075065 0.023351 -0.017937 0.001383 0.004408 -0.080232 -0.101621 -0.017435 0.036428 -0.048438 -0.059296 0.061439 0.001891 -0.032646
